<svg width="128" height="128" viewBox="0 0 128 128" fill="none" xmlns="http://www.w3.org/2000/svg">
<path d="M89.3008 22.2587L89.5318 22.3875C89.5895 22.4674 89.6472 22.5474 89.7005 22.6229C89.705 22.7161 89.7094 22.8094 89.7183 22.9026L82.7065 36.0691C82.076 35.8826 81.3521 35.7094 80.5439 35.5806C80.1798 35.5229 79.8379 35.4829 79.527 35.4563C79.527 35.4563 78.6478 35.3763 77.7286 35.3941C75.4905 35.4341 71.4007 36.0824 68.7541 36.5043C68.6608 36.5176 68.3234 36.5753 68.2301 36.5886C68.3056 36.4599 68.3855 36.3266 68.461 36.1979C70.6147 32.1436 72.7729 28.0937 74.9266 24.0394L75.2552 23.622C75.4195 23.5154 75.6681 23.3645 75.9834 23.2046C76.7294 22.8316 77.3867 22.6628 77.8796 22.5563C80.3086 22.0412 82.4179 22.0056 82.4179 22.0056C84.1364 21.9834 86.4633 22.0189 89.3008 22.2587Z" fill="#F4141F"/>
<path d="M101.641 74.5426V74.3072L101.708 74.0896L101.85 73.912L102.037 73.7832L105.46 72.2112L107.192 71.3098L108.737 70.3417L111.846 68.0815L114.048 66.2297L115.19 65.1107L116.322 63.854L117.405 62.5218L118.396 61.1674L119.288 59.8086L120.057 58.472L120.727 57.1353L121.247 55.852L122.024 53.5784L122.499 51.8021L122.748 50.3811L122.885 49.0223L122.907 47.739L122.823 46.5089L122.548 44.9591L122.108 43.5293L121.495 42.1971L120.727 40.9937L120.057 40.1899L119.315 39.4572L118.498 38.8L117.619 38.2094L116.642 37.6898L115.607 37.2369L114.51 36.8683L113.356 36.5664L112.512 36.4287L111.428 36.3399L108.551 36.2777C100.127 36.2777 91.7032 36.2688 83.2838 36.2644L83.004 36.4154L82.8264 36.6197H82.8175C80.4018 41.0603 77.9772 45.5009 75.5615 49.9371L104.155 49.9282L104.594 49.9682C104.812 49.946 105.26 49.9415 105.74 50.1813C106.051 50.3323 106.26 50.5232 106.393 50.6698C106.468 50.7542 106.553 50.8341 106.628 50.9229L106.779 51.3492L106.832 51.891L106.81 52.6547L106.748 53.0056L106.166 54.5909L105.478 56.1229L104.79 57.3796L104.021 58.6007L103.169 59.7819L102.236 60.9232L101.233 61.8246L100.136 62.6284L99.3277 63.1168L98.484 63.5209L97.7025 63.8007L96.8943 64.0139L96.0505 64.156L95.1802 64.2314C91.5744 64.1826 87.9775 64.1426 84.3761 64.0938C84.2607 64.0716 84.0742 64.0538 83.8566 64.0938C83.6701 64.1338 83.528 64.2048 83.4392 64.2581C83.3637 64.3336 83.226 64.4979 83.1594 64.7466C83.075 65.0485 83.1372 65.3105 83.1727 65.4126C84.3895 73.539 85.6106 81.6698 86.8229 89.7872L86.9384 90.6398L87.0761 91.5324L87.1871 91.8122L87.3602 92.0519L87.6089 92.2429L87.9597 92.385C88.2351 92.4116 88.5148 92.4427 88.7901 92.4694C94.1144 92.4827 99.4387 92.496 104.763 92.5093C103.711 86.5189 102.676 80.533 101.641 74.5426Z" fill="#F4141F"/>
<path d="M67.9725 37.1437C65.6811 41.5665 63.3897 45.9938 61.0984 50.4167L61.054 50.5011L60.9385 50.6076C59.2422 51.1982 57.4881 51.8555 55.6941 52.5882C52.4303 53.9203 49.4373 55.3369 46.7108 56.7623C49.2463 52.002 51.7864 47.2416 54.322 42.4813L54.6506 42.1749L55.0192 41.9396L55.2057 41.8507C59.4687 40.2876 63.7183 38.7157 67.9725 37.1437Z" fill="#F4141F"/>
<path d="M75.3217 49.8971C72.8527 54.6175 70.3837 59.3423 67.9192 64.0627C67.111 63.8895 66.2983 63.7119 65.4901 63.5387C63.5229 63.2944 61.2005 63.2323 58.6471 63.6186C58.1009 63.703 57.5769 63.8007 57.0752 63.9117C56.5778 64.0538 56.0805 64.1914 55.5831 64.3335C54.9525 64.56 54.322 64.7821 53.6914 65.0085L53.647 64.9419L53.6381 64.9153L53.647 64.8353C56.0449 60.2526 58.4384 55.6699 60.8364 51.0872C60.9163 51.0605 61.0007 51.0339 61.0806 51.0072C64.5443 50.199 68.5542 49.6617 72.9904 49.7772C73.7852 49.7994 74.5668 49.8394 75.3217 49.8971Z" fill="#F4141F"/>
<path d="M39.0951 71.2255C37.7851 71.5763 36.4752 71.9227 35.1696 72.2735C33.944 72.6066 31.5105 73.0773 28.6774 72.2957C27.3008 71.9183 26.204 71.3454 25.4136 70.8436C27.5895 66.6384 29.7698 62.4331 31.9457 58.2278C31.9679 58.1879 32.0035 58.139 32.0567 58.1168C32.1589 58.0724 32.2743 58.1257 32.3143 58.139C32.7273 58.3255 34.3748 58.8584 35.0719 59.0271C35.2851 59.0804 35.476 59.1071 35.8535 59.1604C36.8704 59.3069 37.7851 59.3335 38.5623 59.3069C39.3438 59.3291 40.3962 59.2802 41.5952 59.0005C42.7586 58.7252 43.7001 58.3211 44.3795 57.9614C44.9168 57.7305 45.4585 57.4951 45.9959 57.2642L46.0003 57.2598C43.6912 61.9135 41.3954 66.5717 39.0951 71.2255Z" fill="#F4141F"/>
<path d="M60.721 78.0774C58.9714 77.8376 57.4039 77.7222 56.0672 77.6778C54.1 77.6111 52.6258 77.5579 50.734 77.8731C49.0333 78.1573 47.5501 78.6414 46.3067 79.1743C44.9968 81.7054 43.6823 84.241 42.3724 86.7722L39.4105 92.3185L39.1307 93.0201C39.1085 93.1045 39.0863 93.1889 39.0641 93.2688C39.0597 93.2821 39.0463 93.331 39.0641 93.3842C39.0907 93.4597 39.1573 93.4864 39.1707 93.4908C39.2817 93.4509 39.3971 93.4153 39.5082 93.3754C41.4576 92.4606 44.4062 91.4215 48.0386 91.4259C49.0777 91.4259 50.0369 91.5103 50.9072 91.6435C51.6799 91.7856 52.457 91.9277 53.2297 92.0698C56.4225 86.1505 57.7724 83.7303 58.3986 82.6557C58.6073 82.2916 59.4465 80.8572 60.4679 78.8856C60.61 78.6103 60.721 78.3883 60.7876 78.2595C60.8276 78.2328 60.8453 78.184 60.8276 78.1396C60.8098 78.0996 60.7654 78.073 60.721 78.0774Z" fill="#F4141F"/>
<path d="M82.1692 64.2358C77.6087 64.2536 73.0482 64.2714 68.4877 64.2891L68.2301 64.2936C65.7656 68.7875 63.301 73.277 60.8409 77.7709C60.8365 77.8197 60.8365 77.8685 60.832 77.9174C60.872 77.9263 60.912 77.9352 60.9608 77.9396C61.0185 77.9485 61.0718 77.9485 61.1162 77.9485C65.7167 77.9485 70.3216 77.944 74.9221 77.944C75.0331 77.9574 75.4506 77.9884 75.828 77.7087C76.0678 77.5311 76.1788 77.309 76.2188 77.2335C76.4985 76.6785 79.1007 71.6872 82.6843 64.8042C82.7199 64.7421 82.7554 64.5778 82.6843 64.449C82.5866 64.2847 82.3557 64.2447 82.1692 64.2358Z" fill="#F4141F"/>
<path d="M53.0076 65.3862C53.0386 65.3817 53.0919 65.3773 53.1541 65.3906C53.2207 65.4084 53.2651 65.4394 53.2873 65.4572C53.3051 65.4838 53.3362 65.5283 53.3495 65.5904C53.3539 65.6082 53.3584 65.6482 53.3539 65.7014C53.3495 65.7503 53.3317 65.7902 53.3228 65.8169C53.3051 65.8569 53.2918 65.8879 53.274 65.9235C53.2562 65.9546 53.2385 65.9768 53.2385 65.9768C53.2074 66.0212 51.3024 69.6269 46.6397 78.4727C46.6086 78.5393 46.542 78.6592 46.4177 78.7657C46.28 78.8812 46.1379 78.9256 46.0624 78.9434C45.9869 78.9656 45.907 78.9922 45.8315 79.0144L45.8138 79.01C44.9478 79.2009 44.0286 79.4363 43.0739 79.7382C41.1511 80.3377 39.4814 81.0616 38.0649 81.7809C36.2931 82.7623 34.5213 83.7437 32.7539 84.7295C32.7361 84.7384 32.6962 84.7561 32.6384 84.7473C32.6029 84.7428 32.5763 84.7295 32.5629 84.7206C32.5541 84.7206 32.5008 84.7029 32.4741 84.6451C32.4564 84.6052 32.4652 84.5652 32.4697 84.5563C32.4786 84.5297 32.483 84.4986 32.4919 84.472C34.8232 80.0669 37.159 75.6662 39.4903 71.2611L39.5392 71.1412C44.0286 69.2228 48.5181 67.3045 53.0076 65.3862Z" fill="#F4141F"/>
<path d="M18.3263 83.8812C18.3085 83.9211 18.273 83.9833 18.202 84.0321C18.0288 84.1476 17.8201 84.0543 17.8068 84.0499L16.3014 83.4504C14.8449 82.882 12.8333 82.3047 10.4042 82.2204C9.46727 82.1848 8.60134 82.2337 7.82424 82.3181C6.94499 82.3935 6.06575 82.4646 5.18651 82.5401L5.05773 82.4557L5.00888 82.3536L5 82.1449L5.10214 81.9051C7.37129 77.762 9.64489 73.6233 11.914 69.4802C12.4958 69.3603 13.1041 69.2582 13.7391 69.1871C18.2375 68.6809 22.1319 69.7955 24.894 70.9856L25.0361 71.0744L25.1293 71.2165L25.1515 71.3808L25.1027 71.5407L25.0716 71.5895C22.8202 75.6882 20.5733 79.7869 18.3263 83.8812Z" fill="#F4141F"/>
<path d="M31.8169 85.0003H31.8258L31.9635 85.0403L32.0301 85.169V85.2578C29.7254 89.5919 27.4251 93.9215 25.1205 98.2555C21.9365 99.2014 19.432 99.379 17.9 99.3923C16.3191 99.4012 15.3022 99.2369 14.3964 98.9794C13.0953 98.6063 12.1006 98.0513 11.4478 97.625C11.5544 97.4029 11.6609 97.1809 11.7675 96.9589C13.8679 92.8735 15.9728 88.7881 18.0732 84.7028L19.7651 85.32C21.5946 85.9461 24.4144 86.5945 27.7271 86.0838C28.5708 85.955 29.3435 85.7641 30.0362 85.5465C30.6313 85.3688 31.2263 85.1868 31.8169 85.0003Z" fill="#F4141F"/>
<path d="M53.5271 92.3362L67.3197 92.3628C67.4751 92.3983 67.5728 92.465 67.6305 92.5138C67.8881 92.7358 67.9636 93.1444 67.8393 93.5574C65.7744 97.4207 63.7139 101.284 61.649 105.147C61.6002 105.227 61.5424 105.312 61.467 105.4C61.236 105.676 60.9652 105.827 60.7787 105.911L60.4456 106L46.4443 105.96C46.3955 105.902 46.3022 105.778 46.2667 105.587C46.2267 105.369 46.2889 105.201 46.3156 105.134C48.7179 100.867 51.1247 96.5992 53.5271 92.3362Z" fill="#F4141F"/>
</svg>
