<svg width="218" height="70" viewBox="0 0 218 70" fill="none" xmlns="http://www.w3.org/2000/svg">
<path d="M69.6249 0.968449L69.8106 1.07534C69.8556 1.14285 69.9062 1.20474 69.9512 1.27225C69.9569 1.35101 69.9625 1.42414 69.9625 1.5029L64.2129 12.2932C63.6953 12.1413 63.1046 11.995 62.4408 11.8938C62.1426 11.8488 61.8613 11.815 61.6082 11.7925C61.6082 11.7925 60.8881 11.725 60.1342 11.7419C58.3002 11.7756 54.9472 12.3045 52.7813 12.6533C52.7081 12.6645 52.4268 12.7095 52.3537 12.7208C52.4156 12.6139 52.4775 12.507 52.5394 12.4001C54.3059 9.08087 56.0724 5.75601 57.8389 2.43678L58.1089 2.09361C58.2439 2.00922 58.4465 1.87983 58.7052 1.75044C59.3128 1.44664 59.8529 1.306 60.258 1.22161C62.2495 0.799673 63.9766 0.771551 63.9766 0.771551C65.3887 0.737796 67.3015 0.76592 69.6249 0.968449Z" fill="#F4141F"/>
<path d="M175.143 28.5405L174.951 28.8218L174.642 29.12L174.327 29.345L174.001 29.4969L173.663 29.5757L173.489 29.5869L160.982 29.6038C160.949 29.6094 160.769 29.6544 160.673 29.5532C160.662 29.5363 160.622 29.4913 160.611 29.2719C160.605 29.1312 160.617 29.0187 160.634 28.9343C160.617 27.9498 160.6 26.9709 160.577 25.9864L160.499 25.5813L160.274 25.0469L159.919 24.5518L159.317 23.978L158.642 23.5448L157.984 23.2804L157.275 23.1229L156.307 22.9991L155.132 22.971L154.04 23.1397L152.583 23.5729L151.964 23.8148L151.345 24.1186L150.029 24.9569L148.668 26.0595L147.475 27.2578L146.248 28.7318L145.112 30.2733L143.683 32.5236L142.429 34.8977L141.354 37.3899L140.454 40.0059L140.156 41.1367L139.942 42.2619L139.835 43.2858L139.829 44.2253L139.925 45.041L140.122 45.7443L140.426 46.3575L140.82 46.83L141.669 47.5051L142.586 47.9833L143.25 48.1971L143.947 48.3152L144.679 48.349L145.45 48.2984L146.969 48.0283L148.42 47.5895L149.973 46.8863L151.357 46.0424L152.622 45.0635L153.331 44.4053L153.995 43.6964L154.49 43.0439L154.974 42.4025L155.385 41.9637L155.824 41.6318L156.279 41.4236L156.988 41.3167L168.262 41.2661L168.437 41.2942L168.589 41.3842L168.701 41.5193L168.757 41.688L168.78 41.9243L168.757 42.2788L168.673 42.6388L168.302 43.3589C168.009 43.8371 167.694 44.3322 167.356 44.8385C167.103 45.2154 166.845 45.5811 166.591 45.9243C166.411 46.1268 166.237 46.335 166.051 46.5375C165.101 47.612 164.15 48.6359 163.193 49.6148C162.62 50.1605 162.04 50.7006 161.466 51.2463L160.245 52.2083L158.997 53.1197L157.714 53.9748L156.403 54.7737L154.991 55.5557L153.545 56.2758L152.066 56.934L150.552 57.5359L148.426 58.2335L146.462 58.7117L144.459 59.0493L142.417 59.2462L140.336 59.3025L138.896 59.2349L137.5 59.0493L136.15 58.7455L134.845 58.3236L133.872 57.9185L132.921 57.4403L131.998 56.8946L131.104 56.2814L130.164 55.4881L129.394 54.5768L128.516 53.2378L127.846 51.9551C127.599 51.3644 127.357 50.7793 127.109 50.1886C127.019 49.6936 126.935 49.1985 126.845 48.6978C126.783 48.1071 126.744 47.4714 126.738 46.785C126.733 45.7105 126.811 44.7316 126.924 43.8821C127.076 43.0889 127.222 42.2956 127.374 41.5024L127.948 39.1733L128.645 36.8948L129.467 34.667L130.372 32.5911L131.385 30.5658L132.51 28.5799L133.754 26.6446L134.957 25.0131L135.571 24.1805L136.116 23.4379L136.606 22.881L138.738 20.76L140.223 19.3536L141.433 18.3803L143.638 16.7432L144.572 16.1131L145.669 15.4661L148.347 14.116L150.035 13.424L151.84 12.8614L153.72 12.4395L155.627 12.1638L157.607 12.0288L159.587 12.0513L161.573 12.2144L163.52 12.5239L164.656 12.7939L165.764 13.1427L166.709 13.514L167.632 13.9415L168.538 14.431L169.421 14.9767L170.783 15.9837L171.964 17.092L172.96 18.2959L173.77 19.5955L174.158 20.3944L174.484 21.227L174.749 22.0933L174.957 22.9935L175.103 23.9217L175.182 24.8838L175.204 25.8795L175.165 26.909L175.143 28.5405Z" fill="black"/>
<path d="M82.283 55.8763C82.1423 55.8876 82.0017 55.8145 81.9229 55.6851L79.7345 43.8146V43.6233L79.7908 43.4433L79.9089 43.297L80.0608 43.1902L82.8681 41.9018L84.2858 41.1649L85.5516 40.3716L88.1001 38.5207L89.906 37.0018L90.8398 36.0848L91.7681 35.0552L92.657 33.9638L93.4671 32.8555L94.1985 31.7416L94.8285 30.6446L95.3799 29.5476L95.8074 28.4955L96.4432 26.6334L96.8313 25.1763L97.0339 24.0118L97.1464 22.8979L97.1633 21.8458L97.0957 20.8388L96.8707 19.5674L96.5107 18.3972L96.01 17.3058L95.3799 16.3213L94.8285 15.6631L94.221 15.0611L93.5515 14.521L92.8314 14.0372L92.0325 13.6097L91.183 13.2383L90.2829 12.9346L89.3378 12.687L88.6458 12.5745L87.7569 12.5014L85.3997 12.4507C78.4968 12.4507 71.594 12.4451 64.6911 12.4395L64.4604 12.5633L64.3142 12.732H64.3085C62.3283 16.3719 60.3423 20.0118 58.3621 23.6461L81.7935 23.6405L82.1536 23.6742C82.3336 23.6573 82.6993 23.6517 83.0931 23.8486C83.3463 23.9724 83.5207 24.1299 83.6276 24.2481C83.6894 24.3156 83.757 24.3831 83.8188 24.4562L83.9426 24.805L83.9876 25.2495L83.9707 25.8739L83.9201 26.1608L83.4419 27.4604L82.8793 28.715L82.3168 29.7445L81.6867 30.7459L80.9891 31.7135L80.224 32.6474L79.4026 33.3844L78.5025 34.0426L77.8386 34.442L77.1466 34.7739L76.5053 35.0046L75.8414 35.179L75.1495 35.2971L74.435 35.359C71.4814 35.3196 68.5335 35.2859 65.58 35.2465C65.4843 35.2296 65.3324 35.2128 65.1524 35.2465C65.0005 35.2803 64.8824 35.3365 64.8092 35.3815C64.7473 35.4434 64.6348 35.5784 64.5786 35.781C64.5111 36.0285 64.5617 36.2423 64.5898 36.3267C65.5856 42.9876 66.587 49.6486 67.5828 56.3039L67.6784 57.0015L67.7909 57.7329L67.8809 57.9635L68.0216 58.1604L68.2241 58.318L68.511 58.4361C68.736 58.4586 68.9667 58.4811 69.1917 58.5036C73.5574 58.5149 77.9174 58.5261 82.283 58.5374V55.8763Z" fill="#F4141F"/>
<path d="M128.291 12.552L128.015 12.4564C124.398 12.4507 120.78 12.4395 117.163 12.4339L116.887 12.4113L116.629 12.4507L116.6 12.462L116.173 12.6083L115.773 12.8164L115.357 13.1258L114.986 13.5196C104.184 27.5673 93.3827 41.6205 82.5755 55.6682C82.5699 55.6851 82.4855 55.8482 82.3055 55.8763C82.2999 55.8763 82.2943 55.8763 82.2886 55.8763V58.5373C85.1859 58.543 88.0832 58.5542 90.9805 58.5599L91.7569 58.543L92.3701 58.4698L92.9158 58.3179L93.3602 58.0929L93.7484 57.7947L94.1085 57.3897L99.9874 49.446L100.19 49.2379L100.364 49.1873L100.477 49.2379L113.157 49.2716L113.191 49.2773L113.27 49.3842V49.4798L113.259 50.3012L112.612 56.934L112.629 57.7216L112.713 57.9973L112.871 58.2054L113.18 58.3855L113.636 58.4417L118.238 58.4698L122.839 58.5036L123.419 58.4136L123.897 58.1829L124.195 57.8904L124.42 57.5022L124.477 57.2322C125.821 42.3969 127.16 27.5617 128.505 12.7264L128.291 12.552ZM114.693 38.7795L114.643 38.9595L114.53 39.1002L114.378 39.1958L114.198 39.2352L107.931 39.2746C107.83 39.2521 107.706 39.2071 107.644 39.1002C107.644 39.1002 107.582 38.9989 107.622 38.8358C107.774 38.1607 115.278 28.9175 115.318 28.8443C115.323 28.8331 115.357 28.7881 115.413 28.7374C115.453 28.7037 115.543 28.6193 115.61 28.6418C115.61 28.6418 115.661 28.6587 115.678 28.7487C115.734 28.94 115.126 34.7402 114.693 38.7795Z" fill="black"/>
<path d="M213.927 22.1327L213.454 22.7459L212.886 23.1735L212.453 23.3535L193.213 23.3648L193.089 23.2748L192.898 23.3254L192.757 23.4885L189.584 29.9751L189.517 30.2001L189.522 30.3858L189.578 30.4758L189.764 30.4308L206.287 30.4983L206.495 30.8527L206.613 31.1678L206.647 31.4491L206.597 31.6966L206.574 31.7472C205.218 34.4476 203.857 37.1424 202.501 39.8428L202.298 40.1128L202.028 40.321L201.713 40.456L201.376 40.501H185.55L185.348 40.5516L185.196 40.6923C184.195 42.8863 183.199 45.0804 182.197 47.2745L182.119 47.5614L182.017 47.612L181.989 47.7189L182.062 47.8202L182.079 47.8314L182.214 47.7977C188.684 47.8427 195.159 47.8933 201.629 47.9383C201.713 47.9552 201.764 47.9889 201.792 48.0171C201.921 48.1465 201.916 48.4165 201.753 48.6865C200.296 51.7582 198.839 54.8299 197.381 57.9016L197.269 58.0648L196.915 58.3348L196.583 58.4586L196.211 58.4979C185.736 58.5486 175.261 58.5936 164.791 58.6442L164.33 58.3742L164.099 58.031L164.077 57.7554L164.161 57.4516C170.518 42.7457 176.87 28.0398 183.227 13.3396L183.519 12.9289L184.048 12.5295L184.324 12.4507H217.331L217.505 12.4901L217.781 12.687L217.949 12.9289L218 13.3002L217.876 13.7447C216.554 16.5463 215.238 19.3423 213.927 22.1327Z" fill="black"/>
<path d="M52.1455 13.1652C50.2665 16.7882 48.3931 20.4169 46.5141 24.0399L46.4803 24.113L46.3847 24.203C44.9951 24.6868 43.5605 25.2269 42.0866 25.8289C39.4143 26.9203 36.9558 28.0848 34.728 29.2494C36.8096 25.3507 38.8855 21.4464 40.9671 17.5477L41.2371 17.3002L41.5409 17.1089L41.6928 17.0357C45.1752 15.7418 48.6575 14.4535 52.1455 13.1652Z" fill="#F4141F"/>
<path d="M58.1708 23.6123C56.1455 27.4829 54.1258 31.3534 52.1005 35.224C51.4367 35.0834 50.7729 34.9371 50.109 34.7964C48.4944 34.5939 46.5929 34.5433 44.5001 34.8639C44.0556 34.9315 43.6225 35.0102 43.2118 35.1059C42.8067 35.2184 42.396 35.3365 41.991 35.449C41.4734 35.6347 40.9558 35.8147 40.4439 36.0004L40.4101 35.9497L40.3989 35.9272L40.4101 35.8597C42.3735 32.1017 44.3369 28.3493 46.3003 24.5912C46.3678 24.5687 46.4354 24.5462 46.5029 24.5293C49.3439 23.8655 52.6237 23.4267 56.2636 23.5223C56.9106 23.5336 57.5463 23.5673 58.1708 23.6123Z" fill="#F4141F"/>
<path d="M28.4777 41.0917C27.4032 41.3786 26.3343 41.6655 25.2598 41.9524C24.2528 42.2281 22.2612 42.6107 19.9378 41.975C18.807 41.6655 17.9125 41.1986 17.2655 40.7823C19.0489 37.3337 20.8323 33.8907 22.6213 30.442C22.6381 30.4083 22.6663 30.3689 22.7113 30.352C22.7957 30.3126 22.8913 30.3577 22.9194 30.3745C23.257 30.5264 24.6072 30.9652 25.181 31.1003C25.3554 31.1453 25.5129 31.1621 25.8224 31.2072C26.655 31.3253 27.4032 31.3478 28.0389 31.3253C28.6803 31.3422 29.541 31.3028 30.5255 31.0721C31.4819 30.8471 32.247 30.5152 32.8096 30.2226C33.2484 30.0314 33.6929 29.8401 34.1317 29.6544L34.1373 29.6488C32.247 33.4631 30.3624 37.2774 28.4777 41.0917Z" fill="#F4141F"/>
<path d="M46.2047 46.7119C44.7701 46.515 43.4874 46.425 42.3904 46.3856C40.7758 46.3293 39.5719 46.2899 38.0191 46.5431C36.6239 46.7738 35.4088 47.1732 34.3905 47.6064C33.316 49.6823 32.2414 51.7582 31.1669 53.8342L28.7366 58.3798L28.5059 58.9593C28.489 59.0268 28.4665 59.0943 28.4496 59.1618C28.444 59.1731 28.4328 59.2124 28.4496 59.2574C28.4722 59.3193 28.5284 59.3418 28.534 59.3418C28.624 59.3081 28.7197 59.2799 28.8097 59.2462C30.4074 58.4923 32.8209 57.6485 35.8026 57.6485C36.6521 57.6485 37.4397 57.7216 38.1542 57.8285C38.7899 57.9466 39.4256 58.0648 40.0613 58.1773C42.6773 53.3278 43.7856 51.3419 44.2976 50.4587C44.472 50.1605 45.1583 48.9847 45.9909 47.3701C46.1091 47.1451 46.1991 46.965 46.2553 46.8582C46.2891 46.8357 46.3003 46.7963 46.2891 46.7625C46.2722 46.7288 46.2385 46.7063 46.2047 46.7119Z" fill="#F4141F"/>
<path d="M63.7797 35.3646C60.0442 35.3815 56.303 35.3928 52.5675 35.4096L52.3537 35.4153C50.334 39.0945 48.3144 42.7794 46.2947 46.4587C46.2947 46.4981 46.2891 46.5375 46.2891 46.5769C46.3228 46.5825 46.3566 46.5937 46.396 46.5994C46.441 46.605 46.486 46.605 46.5197 46.605C50.289 46.605 54.0639 46.605 57.8332 46.5994C57.9232 46.6106 58.2664 46.6331 58.5758 46.4081C58.7727 46.2618 58.8627 46.0818 58.8965 46.0199C59.1272 45.5642 61.2593 41.4743 64.196 35.8316C64.2241 35.7809 64.2579 35.6459 64.196 35.539C64.1229 35.4096 63.9316 35.3759 63.7797 35.3646Z" fill="#F4141F"/>
<path d="M39.8813 36.3098C39.9038 36.3042 39.9488 36.3042 39.9994 36.3154C40.05 36.3267 40.0894 36.3548 40.1063 36.3717C40.1232 36.3942 40.1457 36.4279 40.1569 36.4786C40.1626 36.4898 40.1682 36.5236 40.1626 36.5686C40.1569 36.608 40.1457 36.6417 40.1344 36.6642C40.1176 36.698 40.1063 36.7205 40.0951 36.7486C40.0782 36.7767 40.0669 36.7936 40.0669 36.7936C40.0388 36.833 38.4804 39.7865 34.6605 47.0326C34.6324 47.0888 34.5818 47.1845 34.4805 47.2745C34.368 47.3701 34.2498 47.4039 34.188 47.4208C34.1261 47.4376 34.0642 47.4601 34.0023 47.477L33.9854 47.4714C33.2766 47.6289 32.5227 47.8202 31.7407 48.0677C30.1655 48.5628 28.7928 49.1535 27.6339 49.7442C26.1824 50.5487 24.731 51.3532 23.2795 52.1577C23.2626 52.1633 23.2289 52.1802 23.1839 52.1746C23.1557 52.1689 23.1332 52.1633 23.122 52.1521C23.1164 52.1521 23.0714 52.1352 23.0489 52.0902C23.032 52.0564 23.0432 52.0227 23.0432 52.017C23.0488 51.9945 23.0545 51.972 23.0601 51.9439C24.9729 48.3321 26.8857 44.726 28.7984 41.1142L28.8378 41.0186C32.5227 39.4546 36.202 37.8794 39.8813 36.3098Z" fill="#F4141F"/>
<path d="M11.4597 51.4657C11.4485 51.4994 11.4147 51.5501 11.3585 51.5895C11.2178 51.6851 11.0434 51.6063 11.0322 51.6007L9.80012 51.1113C8.60745 50.6443 6.95909 50.1718 4.96755 50.1043C4.19681 50.0761 3.48796 50.1155 2.85224 50.183C2.13214 50.2449 1.41204 50.3068 0.691934 50.363L0.585044 50.2899L0.545664 50.2055L0.540039 50.0367L0.624425 49.8398C2.48657 46.4475 4.34871 43.0495 6.20523 39.6571C6.68342 39.5559 7.17849 39.4771 7.70169 39.4152C11.3866 38.9989 14.5764 39.9159 16.8436 40.8892L16.9561 40.9623L17.0349 41.0805L17.0518 41.2155L17.0124 41.3505L16.9843 41.3899C15.139 44.7541 13.2994 48.1071 11.4597 51.4657Z" fill="#F4141F"/>
<path d="M22.5144 52.3827H22.52L22.6325 52.4165L22.6832 52.5234V52.5965C20.7985 56.1464 18.9083 59.6963 17.0236 63.2461C14.4132 64.0225 12.3654 64.1688 11.1053 64.1744C9.8057 64.1857 8.97308 64.0506 8.2361 63.8369C7.17283 63.5274 6.35708 63.0774 5.82263 62.7286C5.91264 62.5486 5.99703 62.3629 6.08705 62.1829C7.80854 58.8355 9.53004 55.4882 11.2515 52.1408L12.6355 52.6471C14.132 53.1591 16.4442 53.6935 19.1614 53.2772C19.8534 53.1703 20.4835 53.0184 21.0573 52.8384C21.5411 52.6865 22.0306 52.5346 22.5144 52.3827Z" fill="#F4141F"/>
<path d="M40.3032 58.3967L51.6055 58.4192C51.7292 58.4473 51.8136 58.5036 51.8586 58.543C52.0668 58.723 52.1287 59.0605 52.0274 59.3981C50.334 62.5654 48.6463 65.7271 46.9529 68.8945C46.9136 68.962 46.8629 69.0295 46.8067 69.1026C46.6154 69.3276 46.396 69.4514 46.2441 69.5189L45.9684 69.5921L34.4918 69.5583C34.4524 69.5133 34.3736 69.4064 34.3455 69.2545C34.3118 69.0801 34.3624 68.9395 34.3849 68.8832C36.3652 65.384 38.3342 61.8903 40.3032 58.3967Z" fill="#F4141F"/>
</svg>
