<svg width="164" height="60" viewBox="0 0 164 60" fill="none" xmlns="http://www.w3.org/2000/svg">
<path d="M44.7646 8.24924C45.3297 8.23956 45.8706 8.28917 45.8706 8.28917C46.0631 8.30612 46.2736 8.33032 46.4975 8.3642C46.9475 8.43418 47.3922 8.53445 47.8287 8.66432L52.1465 0.55633C52.1465 0.498243 52.1465 0.435316 52.1368 0.38328L52.0315 0.236851L51.8899 0.158192C50.4816 0.034995 49.0679 -0.0163017 47.6544 0.00450295C46.7149 0.0364494 45.78 0.149822 44.8602 0.343345C44.4551 0.424771 44.0625 0.559035 43.6924 0.742694C43.5384 0.820437 43.3886 0.906067 43.2434 0.999244L43.0365 1.2558C41.7102 3.75112 40.3834 6.24564 39.0563 8.73935L38.9147 8.98138L39.2366 8.92813C40.8679 8.66795 43.3862 8.2686 44.7646 8.24924ZM124.714 33.931C124.905 33.672 125.097 33.3997 125.289 33.1166C125.546 32.7366 125.783 32.3659 126.001 32.0044L126.281 31.4623L126.345 31.1924L126.364 30.925L126.345 30.7495L126.303 30.6285L126.22 30.5268L126.099 30.4603L125.969 30.4385L117.498 30.476L116.968 30.5583L116.624 30.7144L116.295 30.9649L115.985 31.2941L115.622 31.7781L115.251 32.2622L114.753 32.7922L114.223 33.2872L113.272 34.0242L112.234 34.6583L111.066 35.1859L109.977 35.5175L108.836 35.7184L108.26 35.7559L107.709 35.7305L107.184 35.6397L106.69 35.4776L106 35.1145L105.359 34.6063L105.065 34.2505L104.839 33.7834L104.692 33.2569L104.62 32.6434V31.9379L104.702 31.1719L104.863 30.3248L105.088 29.4777L105.764 27.5136L106.574 25.6415L107.519 23.8601L108.594 22.172L109.441 21.0163L110.363 19.9078L111.26 19.0062L112.281 18.1773L113.27 17.5504L113.737 17.3205L114.2 17.139L115.29 16.8135L116.108 16.6852L116.99 16.7058L117.716 16.7977L118.248 16.9187L118.741 17.1184L119.248 17.4427L119.701 17.8735L119.966 18.2451L120.134 18.6456L120.193 18.9506C120.208 19.6888 120.22 20.427 120.234 21.1651C120.221 21.2492 120.216 21.3343 120.218 21.4193C120.218 21.5839 120.254 21.6177 120.263 21.6286C120.296 21.653 120.334 21.6691 120.375 21.6756C120.415 21.6821 120.457 21.6789 120.496 21.6661L129.888 21.6553L130.021 21.6468L130.272 21.5899L130.514 21.4762L130.756 21.3067L130.988 21.0804L131.132 20.8687L131.145 19.6355L131.175 18.8634L131.158 18.1168L131.098 17.3907L130.99 16.6949L130.835 16.0196L130.637 15.3697L130.395 14.7477L130.103 14.1427L129.498 13.1661L128.75 12.2621L127.864 11.4307L126.843 10.6732L126.18 10.2617L125.498 9.89867L124.805 9.57798L124.093 9.29965L123.262 9.03826L122.409 8.83737L120.949 8.61228L119.459 8.49127L117.972 8.47675L116.485 8.57598L115.052 8.78049L113.643 9.09634L112.285 9.51747L111.019 10.0378L109.01 11.0495L108.185 11.5336L107.484 12.0007L105.826 13.2302L104.919 13.9563L103.802 15.0128L102.202 16.6041L101.839 17.024L101.43 17.5843L100.967 18.21L100.061 19.4371L99.128 20.8892L98.2809 22.3789L97.5185 23.9013L96.8396 25.46L96.22 27.1324L95.6961 28.8435L95.2652 30.5922C95.1539 31.1876 95.0422 31.7834 94.93 32.3796C94.83 33.1013 94.7827 33.8293 94.7884 34.5578C94.7884 35.0722 94.8223 35.5526 94.8683 35.9955L95.068 37.1125L95.621 38.4376L96.1257 39.3996L96.784 40.4053L97.3636 41.0902L98.0679 41.6868L98.7408 42.1491L99.4318 42.5581L100.146 42.9212L100.878 43.2237L101.859 43.5432L102.873 43.7719L103.921 43.9135L105.002 43.9643L106.566 43.922L108.099 43.7755L109.595 43.5275L111.07 43.1644L112.667 42.6404L113.806 42.189L114.919 41.6977L116.008 41.158L117.067 40.5723L118.054 39.9672L119.022 39.327L119.96 38.6433L120.874 37.9172L122.172 36.6925C122.888 35.9592 123.603 35.1891 124.317 34.3824C124.449 34.2339 124.581 34.0823 124.714 33.9274V33.931ZM95.9538 8.85431L95.7469 8.7817L87.5953 8.76597L87.3896 8.74903L87.1948 8.77807L87.173 8.78654L86.8523 8.89667L86.5522 9.05278L86.2387 9.28997L85.9604 9.58524C77.846 20.1377 69.7327 30.6898 61.6207 41.2415C61.601 41.2815 61.5725 41.3164 61.5372 41.3437C61.502 41.3709 61.461 41.3898 61.4174 41.3988C61.3604 41.4073 61.3022 41.3981 61.2505 41.3726C61.1988 41.3471 61.1561 41.3064 61.1282 41.256L59.4848 32.3396V32.1956L59.526 32.0613L59.6155 31.9512L59.7293 31.8701L61.8385 30.902L62.9023 30.349L63.8534 29.7536L65.7667 28.3619L67.1245 27.2219L67.8251 26.5334L68.5222 25.7601L69.1902 24.9396L69.7953 24.107L70.3447 23.2708L70.8178 22.4467L71.2317 21.6226L71.5536 20.8324L72.0304 19.4334L72.3221 18.3443L72.4745 17.4706L72.558 16.6331L72.5713 15.8429L72.5205 15.0866L72.3511 14.1318L72.08 13.2496L71.7037 12.4291L71.2329 11.6897L70.819 11.1947L70.3628 10.7434L69.8594 10.338L69.3185 9.97491L68.7134 9.65301L68.0865 9.37468L67.4113 9.14596L66.7009 8.96081L66.1806 8.87609L65.5138 8.82164L63.7433 8.78291C58.5574 8.78291 53.3728 8.78009 48.1893 8.77444L48.015 8.86762L47.9061 8.98864C46.4136 11.7228 44.9223 14.4573 43.4322 17.1922H61.0314L61.3012 17.2176C61.544 17.1951 61.7882 17.2404 62.0068 17.3483C62.1582 17.4225 62.2945 17.5243 62.4085 17.6485C62.4545 17.6993 62.5053 17.7501 62.5513 17.8046L62.6445 18.0672L62.6784 18.4012L62.6663 18.8695L62.6276 19.0849L62.2645 20.0615L61.8422 21.0042L61.4186 21.7775L60.9467 22.529L60.4227 23.2551L59.8575 23.9521L59.2416 24.5052L58.5651 25.0001L58.0665 25.3002L57.5413 25.5544L57.0572 25.7274L56.5587 25.8581L56.0395 25.9476L55.5034 25.9936C53.284 25.9646 51.0654 25.9364 48.8476 25.9089C48.7412 25.8898 48.6322 25.8898 48.5257 25.9089C48.435 25.9291 48.348 25.9634 48.2679 26.0106C48.1858 26.0944 48.1263 26.1976 48.0949 26.3107C48.0582 26.4454 48.0612 26.5878 48.1034 26.7209C48.8512 31.7229 49.6007 36.7248 50.3518 41.7268L50.4232 42.2508L50.5079 42.8014L50.5757 42.9744L50.681 43.1221L50.8323 43.2431L51.0489 43.3326L51.5608 43.3847L67.9292 43.4258L68.5125 43.4125L68.9724 43.358L69.3826 43.2431L69.7166 43.0749L70.0082 42.851L70.2781 42.5472L74.7 36.5667L74.8525 36.4106L74.9832 36.3731L75.0679 36.4106L84.5917 36.436H84.6171L84.6765 36.5159V36.5873L84.668 37.2044L84.1839 42.1866L84.196 42.7772L84.2589 42.9853L84.38 43.1414L84.6123 43.277L84.9548 43.3193L88.411 43.3399L91.8671 43.3653L92.3028 43.2975L92.6658 43.1245L92.8897 42.9042L93.0579 42.6126L93.1015 42.4105C94.11 31.2675 95.1184 20.1248 96.1269 8.98259L95.9538 8.85431ZM85.7414 28.5579L85.7039 28.6935L85.6179 28.7988L85.5042 28.8714L85.3699 28.9004L80.6624 28.9295C80.6196 28.9239 80.5785 28.9097 80.5414 28.8876C80.5044 28.8655 80.4722 28.8361 80.447 28.8012C80.4187 28.7381 80.4128 28.6672 80.43 28.6003C80.5426 28.092 86.1807 21.1494 86.2121 21.0974C86.2326 21.0672 86.2565 21.0396 86.2835 21.0151C86.3101 20.9909 86.3815 20.9267 86.4324 20.9449C86.4324 20.9449 86.4687 20.9582 86.4844 21.026C86.5195 21.1688 86.0645 25.5229 85.7414 28.5579ZM163.288 9.14959L163.167 8.96686L162.958 8.81801L162.825 8.78654H138.033L137.825 8.84463L137.429 9.14233L137.209 9.45213C132.435 20.4967 127.662 31.5414 122.888 42.586L122.826 42.8135L122.843 43.0192L123.016 43.2745L123.361 43.4791L146.959 43.3701L147.24 43.3423L147.49 43.2491L147.755 43.047L147.843 42.926L151.126 36.0028C151.247 35.8031 151.247 35.5974 151.156 35.5018C151.122 35.4704 151.08 35.4498 151.035 35.4425C146.173 35.4086 141.313 35.3735 136.453 35.3372L136.355 35.3614L136.342 35.3541L136.289 35.2779L136.311 35.1956L136.387 35.1581L136.447 34.9439L138.696 30.0004L138.817 29.8951L138.97 29.8552H150.859L151.111 29.8213L151.353 29.7233L151.554 29.566L151.707 29.3627L154.766 23.2841L154.784 23.2466L154.82 23.0602L154.795 22.8485L154.704 22.6064L154.547 22.3414L142.138 22.293L141.999 22.3281L141.956 22.2591V22.1175L142.006 21.9469L144.391 17.0736L144.494 16.9526L144.638 16.9151L144.734 16.9805L159.183 16.972L159.507 16.8377L159.937 16.5145L160.293 16.0547C161.278 13.9571 162.263 11.8595 163.25 9.76192L163.345 9.42792L163.288 9.14959ZM34.4335 17.6085L34.5037 17.5432L34.5304 17.4887C35.9414 14.7659 37.3532 12.0426 38.7659 9.31901L30.9132 12.2234L30.7983 12.279L30.5695 12.4218L30.3614 12.6058L25.6757 21.3951C27.3518 20.5177 29.196 19.6464 31.2049 18.8259C32.3109 18.3758 33.3872 17.97 34.4335 17.6085ZM34.5195 17.8506L34.3682 17.899C32.8942 20.7226 31.4195 23.5431 29.9439 26.3603L29.9378 26.4087L29.9439 26.4257L29.9705 26.4668L31.1347 26.0517L32.0532 25.7927C32.363 25.7238 32.6861 25.6633 33.0213 25.6124C34.4148 25.4049 35.8301 25.3894 37.2278 25.5665L38.7223 25.8884C40.2422 22.984 41.7618 20.0776 43.2809 17.1692C42.8138 17.1329 42.335 17.1083 41.8445 17.0954C39.3805 17.036 36.919 17.291 34.5195 17.8542V17.8506ZM18.5673 30.9419L20.9876 30.2957L25.234 21.7037L24.2393 22.1321C23.1338 22.7129 21.897 22.9984 20.6487 22.961C20.0917 22.9806 19.5341 22.9506 18.9824 22.8715C18.8197 22.8522 18.6582 22.8248 18.4983 22.7892C17.9241 22.6375 17.3586 22.4549 16.8041 22.2422C16.7803 22.2292 16.754 22.2212 16.7269 22.2187C16.6999 22.2162 16.6726 22.2192 16.6468 22.2277C16.6168 22.2424 16.5926 22.2667 16.5778 22.2966L12.5565 30.0622C13.1779 30.4584 13.855 30.7599 14.5653 30.9565C15.8766 31.3095 17.2586 31.3045 18.5673 30.9419ZM28.2485 42.8667L29.6789 43.1293C31.6454 39.4856 32.4755 37.9971 32.8603 37.3351C32.9898 37.11 33.5054 36.2279 34.1334 35.0141C34.2193 34.8447 34.2895 34.7091 34.3307 34.628C34.3426 34.6204 34.3514 34.6088 34.3558 34.5954C34.3603 34.582 34.3599 34.5674 34.3549 34.5542C34.3503 34.5417 34.3415 34.5311 34.3301 34.5243C34.3186 34.5175 34.3052 34.5148 34.292 34.5167C33.3419 34.3873 32.3858 34.3065 31.4275 34.2747C30.2174 34.2323 29.3086 34.2009 28.1444 34.3957C27.2069 34.5525 26.2916 34.8211 25.4179 35.1956C24.6112 36.7551 23.8044 38.3141 22.9976 39.8728L21.174 43.2866L21.0118 43.7138C20.9973 43.7646 20.984 43.8155 20.9694 43.8675C20.9601 43.8938 20.9617 43.9228 20.9737 43.948C20.9857 43.9731 21.0073 43.9925 21.0336 44.0018L21.2429 43.9329C22.8831 43.1498 24.6763 42.7395 26.4938 42.7312C27.0832 42.7322 27.6718 42.7775 28.2545 42.8667H28.2485ZM47.4898 25.9948C44.6839 26.0069 41.8768 26.0178 39.0684 26.0275H38.9099C37.3924 28.7923 35.8756 31.5575 34.3597 34.3231C34.3597 34.3521 34.3597 34.3824 34.3597 34.4126C34.386 34.4193 34.4127 34.4241 34.4396 34.4272C34.4714 34.43 34.5034 34.43 34.5352 34.4272H43.0328C43.2298 34.4493 43.428 34.3981 43.5895 34.2831C43.6933 34.2072 43.7765 34.1065 43.8315 33.9903C44.0034 33.6478 45.6056 30.5765 47.8117 26.3397C47.8285 26.3057 47.8372 26.2682 47.8372 26.2302C47.8372 26.1922 47.8285 26.1548 47.8117 26.1207C47.7561 26.0263 47.6145 26.0009 47.4983 25.9948H47.4898ZM25.1263 35.0903H25.1372L25.2776 35.0467C25.3584 35.0273 25.4338 34.9897 25.4978 34.9366C25.5558 34.887 25.6024 34.8255 25.6346 34.7563C28.5038 29.3106 29.6752 27.0937 29.6958 27.0646C29.6958 27.0646 29.7055 27.0513 29.7176 27.0307C29.7297 27.0102 29.7357 26.9932 29.7478 26.9678C29.7579 26.9451 29.7645 26.9211 29.7672 26.8964C29.7715 26.8744 29.7715 26.8518 29.7672 26.8298C29.7643 26.7988 29.7506 26.7697 29.7285 26.7476C29.7064 26.7255 29.6773 26.7118 29.6462 26.7088C29.6167 26.7026 29.5862 26.7026 29.5566 26.7088L21.2538 30.2449L21.2236 30.3187C19.7916 33.0319 18.3563 35.7422 16.9179 38.4497C16.9179 38.4678 16.9094 38.486 16.9046 38.5029C16.8981 38.5209 16.8981 38.5406 16.9046 38.5586C16.9097 38.5699 16.9172 38.58 16.9266 38.5882C16.936 38.5963 16.9471 38.6023 16.959 38.6058C16.9738 38.6136 16.9897 38.6189 17.0062 38.6215C17.0303 38.6246 17.0547 38.6204 17.0764 38.6094L20.3438 36.7942C21.3361 36.2894 22.3692 35.8692 23.4321 35.5381C24.0226 35.3565 24.5878 35.2077 25.1263 35.0903ZM7.8829 38.1919C7.92116 38.2095 7.96302 38.2177 8.00507 38.216C8.04713 38.2144 8.0882 38.2028 8.12493 38.1822C8.15882 38.1587 8.18527 38.1259 8.20117 38.0878L12.3508 30.5232L12.3701 30.493L12.3992 30.3937L12.3859 30.2921L12.3278 30.2037L12.2419 30.1481C10.5416 29.422 8.1455 28.7274 5.37669 29.0396C4.9854 29.0848 4.61107 29.1449 4.25367 29.2199L0.0617176 36.868L0 37.0157V37.1439L0.0302537 37.2081L0.110123 37.2613L1.73414 37.1258C2.26109 37.0656 2.79185 37.0453 3.32186 37.0653C4.56601 37.1117 5.79339 37.3678 6.9523 37.8228L7.8829 38.1919ZM16.5113 38.7776L15.4137 39.1153C14.9491 39.2609 14.4741 39.3714 13.9929 39.4456C12.3456 39.6862 10.6645 39.5247 9.09305 38.9749L8.05232 38.5949C6.75746 41.108 5.46382 43.6223 4.17138 46.1378C4.10482 46.2745 4.03947 46.4112 3.97412 46.5468C4.53408 46.914 5.14597 47.195 5.78935 47.3806C6.34601 47.5415 6.97287 47.642 7.94583 47.6347C9.45302 47.6134 10.9496 47.3783 12.3907 46.9364L16.6432 38.9374V38.8817L16.6032 38.8018L16.5113 38.7776ZM38.3593 43.3084L29.8689 43.2903L25.43 51.1695C25.3942 51.2532 25.3827 51.3453 25.3969 51.4352C25.411 51.5251 25.4502 51.6092 25.5099 51.6778L34.1286 51.702L34.3343 51.6463C34.4973 51.5751 34.6421 51.468 34.7579 51.3329C34.7989 51.2842 34.8361 51.2324 34.8692 51.178C36.139 48.8005 37.4093 46.4225 38.6799 44.0442C38.755 43.7901 38.709 43.5384 38.5505 43.404C38.4957 43.3567 38.43 43.3239 38.3593 43.3084Z" fill="white"/>
<path d="M100.422 56.4373L97.9929 59.787H95.0656L104.796 46.8856H108.337L106.401 59.787H103.506L104.134 56.4373H100.422ZM104.583 54.3317L105.077 51.5568C105.209 50.8476 105.41 49.8142 105.561 49.03H105.522C104.988 49.8142 104.357 50.8101 103.812 51.5568L101.789 54.3317H104.583Z" fill="white"/>
<path d="M115.783 46.8856L112.378 54.3135C112.149 54.8057 111.967 55.3182 111.835 55.8443C111.557 56.8778 111.974 57.6813 113.218 57.6813C114.653 57.6813 115.867 56.7241 116.969 54.3317L120.378 46.8856H123.135L119.776 54.2167C117.983 58.1218 115.759 59.9976 112.256 59.9976C109.593 60.0169 108.332 58.6386 109.071 55.8831C109.246 55.2662 109.471 54.6644 109.743 54.0836L113.029 46.8868L115.783 46.8856Z" fill="white"/>
<path d="M126.852 49.2974H123.446L124.57 46.8856H134.161L133.054 49.2974H129.61L124.832 59.787H122.075L126.852 49.2974Z" fill="white"/>
<path d="M144.414 52.0566C143.784 54.4103 142.357 56.689 140.487 58.1436C138.97 59.3114 137.158 60 135.224 60C131.876 60 130.634 57.6269 131.439 54.6209C132.065 52.2865 133.546 49.9703 135.447 48.5145C136.96 47.3661 138.791 46.6775 140.651 46.6775C144.054 46.6751 145.238 48.9719 144.414 52.0566ZM137.226 49.9509C135.915 50.9844 134.806 52.9763 134.393 54.5253C133.909 56.3405 134.366 57.7031 136.242 57.7031C137.046 57.7031 137.908 57.3401 138.655 56.7653C139.941 55.7512 141.064 53.6262 141.465 52.1328C141.895 50.5246 141.736 48.9744 139.707 48.9744C138.846 48.9719 137.977 49.3556 137.226 49.9485V49.9509Z" fill="white"/>
</svg>
