<svg width="31" height="23" viewBox="0 0 31 23" fill="none" xmlns="http://www.w3.org/2000/svg">
<path d="M22.3808 0.856277L22.44 0.889304C22.4548 0.909804 22.4696 0.930306 22.4833 0.949667C22.4844 0.973584 22.4856 0.9975 22.4879 1.02142L20.6895 4.39824C20.5278 4.35041 20.3422 4.30599 20.1349 4.27296C20.0415 4.25816 19.9538 4.24791 19.8741 4.24107C19.8741 4.24107 19.6486 4.22057 19.4128 4.22513C18.8388 4.23538 17.7899 4.40166 17.1111 4.50985C17.0872 4.51327 17.0007 4.52807 16.9767 4.53149C16.9961 4.49846 17.0166 4.4643 17.036 4.43127C17.5883 3.39146 18.1418 2.35278 18.6942 1.31297L18.7785 1.20592C18.8206 1.17859 18.8844 1.13986 18.9653 1.09886C19.1566 1.0032 19.3251 0.959916 19.4516 0.932583C20.0745 0.800471 20.6155 0.791359 20.6155 0.791359C21.0563 0.785665 21.653 0.794777 22.3808 0.856277Z" fill="white"/>
<path d="M25.5458 14.2656V14.2053L25.5629 14.1495L25.5993 14.1039L25.6471 14.0709L26.5252 13.6677L26.9694 13.4365L27.3657 13.1882L28.163 12.6085L28.7279 12.1336L29.0206 11.8466L29.311 11.5243L29.5889 11.1826L29.8428 10.8353L30.0717 10.4868L30.2688 10.144L30.4408 9.80117L30.574 9.47203L30.7733 8.88892L30.8952 8.43336L30.9589 8.06891L30.9943 7.72041L31 7.39127L30.9783 7.0758L30.9077 6.67832L30.7949 6.3116L30.6378 5.96993L30.4408 5.66129L30.2688 5.45515L30.0786 5.26723L29.869 5.09867L29.6435 4.9472L29.393 4.81395L29.1276 4.69778L28.8463 4.60325L28.5502 4.52581L28.3338 4.4905L28.0559 4.46773L27.3179 4.45178C25.1574 4.45178 22.9969 4.4495 20.8376 4.44836L20.7658 4.48709L20.7203 4.53948H20.718C20.0985 5.67837 19.4766 6.81727 18.8571 7.95502L26.1904 7.95274L26.3031 7.96299C26.359 7.9573 26.474 7.95616 26.597 8.01766C26.6767 8.05638 26.7302 8.10536 26.7644 8.14294C26.7838 8.16458 26.8054 8.18508 26.8248 8.20786L26.8635 8.31719L26.8772 8.45613L26.8715 8.65203L26.8555 8.742L26.7063 9.14858L26.5298 9.5415L26.3533 9.86381L26.1562 10.177L25.9376 10.48L25.6984 10.7726L25.441 11.0038L25.1597 11.21L24.9524 11.3353L24.736 11.4389L24.5356 11.5107L24.3283 11.5653L24.1119 11.6018L23.8887 11.6211C22.9639 11.6086 22.0414 11.5983 21.1178 11.5858C21.0881 11.5801 21.0403 11.5756 20.9845 11.5858C20.9367 11.5961 20.9002 11.6143 20.8775 11.628C20.8581 11.6473 20.8228 11.6895 20.8057 11.7532C20.7841 11.8307 20.8 11.8979 20.8091 11.9241C21.1212 14.0082 21.4344 16.0936 21.7453 18.1755L21.7749 18.3941L21.8102 18.623L21.8387 18.6948L21.8831 18.7563L21.9469 18.8053L22.0368 18.8417C22.1075 18.8486 22.1792 18.8565 22.2498 18.8634C23.6154 18.8668 24.9809 18.8702 26.3464 18.8736C26.0765 17.3372 25.8111 15.802 25.5458 14.2656Z" fill="white"/>
<path d="M16.9107 4.67389C16.3231 5.80823 15.7354 6.94371 15.1477 8.07805L15.1363 8.09968L15.1067 8.12702C14.6717 8.27849 14.2218 8.44705 13.7617 8.63497C12.9246 8.97663 12.157 9.33994 11.4577 9.70553C12.108 8.48463 12.7595 7.26373 13.4098 6.04284L13.494 5.96426L13.5886 5.9039L13.6364 5.88112C14.7297 5.48023 15.8197 5.07706 16.9107 4.67389Z" fill="white"/>
<path d="M18.7956 7.94478C18.1624 9.15543 17.5291 10.3672 16.8971 11.5779C16.6898 11.5334 16.4814 11.4879 16.2741 11.4435C15.7696 11.3808 15.1739 11.3649 14.519 11.464C14.379 11.4856 14.2446 11.5107 14.1159 11.5391C13.9883 11.5756 13.8608 11.6109 13.7332 11.6473C13.5715 11.7054 13.4098 11.7624 13.248 11.8204L13.2367 11.8034L13.2344 11.7965L13.2367 11.776C13.8517 10.6007 14.4655 9.42535 15.0805 8.25001C15.101 8.24317 15.1227 8.23634 15.1432 8.22951C16.0315 8.02223 17.0599 7.88442 18.1977 7.91403C18.4015 7.91973 18.602 7.92998 18.7956 7.94478Z" fill="white"/>
<path d="M9.50448 13.4149C9.1685 13.5049 8.83253 13.5937 8.49769 13.6837C8.18336 13.7691 7.55925 13.8898 6.83263 13.6894C6.47957 13.5926 6.19827 13.4456 5.99554 13.3169C6.5536 12.2384 7.1128 11.1599 7.67086 10.0813C7.67655 10.0711 7.68566 10.0586 7.69933 10.0529C7.72552 10.0415 7.75514 10.0552 7.76539 10.0586C7.8713 10.1064 8.29383 10.2431 8.47264 10.2863C8.52731 10.3 8.57628 10.3068 8.67309 10.3205C8.93389 10.3581 9.16851 10.3649 9.36781 10.3581C9.56826 10.3638 9.83817 10.3513 10.1457 10.2795C10.4441 10.2089 10.6855 10.1053 10.8598 10.013C10.9976 9.95379 11.1365 9.89343 11.2743 9.83421L11.2755 9.83307C10.6832 11.0266 10.0944 12.2213 9.50448 13.4149Z" fill="white"/>
<path d="M15.0509 15.1722C14.6022 15.1107 14.2001 15.0811 13.8573 15.0697C13.3528 15.0526 12.9747 15.039 12.4895 15.1198C12.0533 15.1927 11.6729 15.3169 11.354 15.4535C11.0181 16.1027 10.681 16.753 10.345 17.4022L9.58534 18.8247L9.51359 19.0046C9.50789 19.0263 9.5022 19.0479 9.4965 19.0684C9.49537 19.0718 9.49195 19.0843 9.4965 19.098C9.50334 19.1174 9.52042 19.1242 9.52384 19.1253C9.55231 19.1151 9.58192 19.106 9.61039 19.0957C10.1104 18.8611 10.8666 18.5946 11.7982 18.5958C12.0647 18.5958 12.3107 18.6174 12.5339 18.6516C12.7321 18.688 12.9314 18.7244 13.1296 18.7609C13.9484 17.2427 14.2947 16.622 14.4553 16.3464C14.5088 16.253 14.724 15.8852 14.986 15.3795C15.0224 15.3089 15.0509 15.252 15.068 15.2189C15.0782 15.2121 15.0828 15.1996 15.0782 15.1882C15.0737 15.1779 15.0623 15.1711 15.0509 15.1722Z" fill="white"/>
<path d="M20.5517 11.6223C19.3821 11.6268 18.2124 11.6314 17.0428 11.6359L16.9767 11.6371C16.3447 12.7896 15.7126 13.941 15.0816 15.0936C15.0805 15.1061 15.0805 15.1187 15.0793 15.1312C15.0896 15.1335 15.0998 15.1357 15.1124 15.1369C15.1272 15.1392 15.1408 15.1392 15.1522 15.1392C16.3321 15.1392 17.5132 15.138 18.6931 15.138C18.7215 15.1414 18.8286 15.1494 18.9254 15.0777C18.9869 15.0321 19.0154 14.9752 19.0256 14.9558C19.0974 14.8134 19.7648 13.5333 20.6838 11.768C20.693 11.7521 20.7021 11.7099 20.6838 11.6769C20.6588 11.6348 20.5996 11.6245 20.5517 11.6223Z" fill="white"/>
<path d="M13.0726 11.9173C13.0806 11.9161 13.0943 11.915 13.1102 11.9184C13.1273 11.923 13.1387 11.9309 13.1444 11.9355C13.1489 11.9423 13.1569 11.9537 13.1603 11.9697C13.1615 11.9742 13.1626 11.9845 13.1615 11.9981C13.1603 12.0107 13.1558 12.0209 13.1535 12.0277C13.1489 12.038 13.1455 12.046 13.141 12.0551C13.1364 12.0631 13.1318 12.0687 13.1318 12.0687C13.1239 12.0801 12.6353 13.0049 11.4394 15.2736C11.4315 15.2907 11.4144 15.3214 11.3825 15.3488C11.3472 15.3784 11.3108 15.3898 11.2914 15.3943C11.272 15.4 11.2515 15.4068 11.2322 15.4125L11.2276 15.4114C11.0055 15.4604 10.7698 15.5207 10.5249 15.5982C10.0318 15.7519 9.60355 15.9376 9.24024 16.1221C8.78582 16.3738 8.33141 16.6255 7.87813 16.8783C7.87357 16.8806 7.86332 16.8851 7.84851 16.8829C7.8394 16.8817 7.83257 16.8783 7.82915 16.876C7.82687 16.876 7.81321 16.8715 7.80637 16.8567C7.80182 16.8464 7.8041 16.8362 7.80524 16.8339C7.80751 16.8271 7.80865 16.8191 7.81093 16.8122C8.40885 15.6825 9.00791 14.5538 9.60583 13.424L9.61836 13.3933C10.7698 12.9013 11.9212 12.4093 13.0726 11.9173Z" fill="white"/>
<path d="M4.17789 16.6608C4.17334 16.671 4.16423 16.687 4.14601 16.6995C4.10159 16.7291 4.04806 16.7052 4.04464 16.704L3.65856 16.5503C3.285 16.4045 2.76908 16.2565 2.14611 16.2348C1.9058 16.2257 1.68371 16.2382 1.48441 16.2599C1.25891 16.2792 1.03341 16.2975 0.807905 16.3168L0.774877 16.2952L0.762349 16.269L0.760071 16.2155L0.786266 16.154C1.36824 15.0914 1.95135 14.0299 2.53333 12.9673C2.68253 12.9366 2.83855 12.9104 3.00142 12.8922C4.15512 12.7623 5.15393 13.0482 5.86232 13.3534L5.89876 13.3762L5.92268 13.4126L5.92837 13.4548L5.91585 13.4958L5.90788 13.5083C5.33046 14.5595 4.75417 15.6107 4.17789 16.6608Z" fill="white"/>
<path d="M7.63781 16.9478H7.64008L7.67539 16.958L7.69247 16.991V17.0138C7.10139 18.1254 6.51144 19.2358 5.92035 20.3474C5.10377 20.59 4.46143 20.6355 4.06851 20.6389C3.66306 20.6412 3.40226 20.5991 3.16992 20.533C2.83623 20.4373 2.58111 20.295 2.4137 20.1856C2.44103 20.1287 2.46836 20.0718 2.4957 20.0148C3.03439 18.967 3.57423 17.9192 4.11293 16.8715L4.54685 17.0298C5.01607 17.1904 5.73927 17.3566 6.58888 17.2257C6.80527 17.1926 7.00344 17.1437 7.18111 17.0878C7.33372 17.0423 7.48633 16.9956 7.63781 16.9478Z" fill="white"/>
<path d="M13.2059 18.8292L16.7433 18.8361C16.7832 18.8452 16.8082 18.8623 16.823 18.8748C16.8891 18.9317 16.9084 19.0365 16.8766 19.1424C16.347 20.1333 15.8185 21.1241 15.2889 22.1149C15.2764 22.1354 15.2616 22.1571 15.2422 22.1799C15.183 22.2505 15.1135 22.2892 15.0657 22.3108L14.9803 22.3336L11.3894 22.3234C11.3768 22.3085 11.3529 22.2767 11.3438 22.2277C11.3335 22.1719 11.3495 22.1286 11.3563 22.1115C11.9725 21.017 12.5898 19.9226 13.2059 18.8292Z" fill="white"/>
</svg>
