<svg width="745" height="887" viewBox="0 0 745 887" fill="none" xmlns="http://www.w3.org/2000/svg">
<path d="M283.6 2.60001C276.4 2.60001 270.8 8.19999 270.8 15.4V45.2C270.8 52.4 276.4 58 283.6 58C290.8 58 296.4 52.4 296.4 45.2V15.4C296.4 8.19999 290.8 2.60001 283.6 2.60001ZM313.4 2.60001C306.3 2.60001 300.6 8.29999 300.6 15.4C300.6 22.5 306.3 28.2 313.4 28.2C320.5 28.2 326.2 22.5 326.2 15.4C326.2 8.29999 320.5 2.60001 313.4 2.60001ZM373 2.60001C365.8 2.60001 360.2 8.19999 360.2 15.4V104.8C360.2 112 365.8 117.6 373 117.6C380.2 117.6 385.8 112 385.8 104.8V15.4C385.8 8.19999 380.2 2.60001 373 2.60001ZM492.2 2.60001C485 2.60001 479.4 8.19999 479.4 15.4V75C479.4 82.2 485 87.8 492.2 87.8C499.4 87.8 505 82.2 505 75V15.4C505 8.19999 499.4 2.60001 492.2 2.60001ZM343.2 32.4C336.1 32.4 330.4 38.1 330.4 45.2C330.4 52.3 336.1 58 343.2 58C350.3 58 356 52.3 356 45.2C356 38.1 350.3 32.4 343.2 32.4ZM462.4 32.4C455.2 32.4 449.6 38 449.6 45.2V104.8C449.6 112 455.2 117.6 462.4 117.6C469.6 117.6 475.2 112 475.2 104.8V45.2C475.2 38 469.6 32.4 462.4 32.4ZM253.9 62.2C246.7 62.2 241.1 67.8 241.1 75V224C241.1 231.2 246.7 236.8 253.9 236.8C261.1 236.8 266.7 231.2 266.7 224V75C266.6 67.8 261 62.2 253.9 62.2ZM313.4 62.2C306.3 62.2 300.6 67.9 300.6 75C300.6 82.1 306.3 87.8 313.4 87.8C320.5 87.8 326.2 82.1 326.2 75C326.2 67.9 320.5 62.2 313.4 62.2ZM432.6 62.2C425.4 62.2 419.8 67.8 419.8 75V313.3C419.8 320.5 425.4 326.1 432.6 326.1C439.8 326.1 445.4 320.5 445.4 313.3V74.9C445.4 67.8 439.8 62.2 432.6 62.2ZM343.2 91.9C336 91.9 330.4 97.5 330.4 104.7V134.5C330.4 141.7 336 147.3 343.2 147.3C350.4 147.3 356 141.7 356 134.5V104.7C356 97.6 350.4 91.9 343.2 91.9ZM402.8 91.9C395.7 91.9 390 97.6 390 104.7C390 111.8 395.7 117.5 402.8 117.5C409.9 117.5 415.6 111.8 415.6 104.7C415.6 97.7 409.9 91.9 402.8 91.9ZM283.6 121.7C276.5 121.7 270.8 127.4 270.8 134.5C270.8 141.6 276.5 147.3 283.6 147.3C290.7 147.3 296.4 141.6 296.4 134.5C296.4 127.5 290.7 121.7 283.6 121.7ZM313.4 121.7C306.3 121.7 300.6 127.4 300.6 134.5C300.6 141.6 306.3 147.3 313.4 147.3C320.5 147.3 326.2 141.6 326.2 134.5C326.2 127.5 320.5 121.7 313.4 121.7ZM492.2 121.7C485 121.7 479.4 127.3 479.4 134.5V194.1C479.4 201.3 485 206.9 492.2 206.9C499.4 206.9 505 201.3 505 194.1V134.5C505 127.4 499.4 121.7 492.2 121.7ZM373 151.5C365.8 151.5 360.2 157.1 360.2 164.3V253.7C360.2 260.9 365.8 266.5 373 266.5C380.2 266.5 385.8 260.9 385.8 253.7V164.3C385.8 157.2 380.2 151.5 373 151.5ZM462.4 151.5C455.3 151.5 449.6 157.2 449.6 164.3C449.6 171.4 455.3 177.1 462.4 177.1C469.5 177.1 475.2 171.4 475.2 164.3C475.2 157.3 469.5 151.5 462.4 151.5ZM313.4 181.3C306.3 181.3 300.6 187 300.6 194.1C300.6 201.2 306.3 206.9 313.4 206.9C320.5 206.9 326.2 201.2 326.2 194.1C326.2 187 320.5 181.3 313.4 181.3ZM343.2 211.1C336 211.1 330.4 216.7 330.4 223.9V253.7C330.4 260.9 336 266.5 343.2 266.5C350.4 266.5 356 260.9 356 253.7V223.9C356 216.7 350.4 211.1 343.2 211.1ZM15.5 266.5C22.6 266.5 28.3 260.8 28.3 253.7C28.3 246.6 22.6 240.9 15.5 240.9C8.40001 240.9 2.70001 246.6 2.70001 253.7C2.70001 260.8 8.40001 266.5 15.5 266.5ZM75.1 266.5C82.2 266.5 87.9 260.8 87.9 253.7C87.9 246.6 82.2 240.9 75.1 240.9C68 240.9 62.3 246.6 62.3 253.7C62.3 260.8 68 266.5 75.1 266.5ZM104.9 266.5C112 266.5 117.7 260.8 117.7 253.7C117.7 246.6 112 240.9 104.9 240.9C97.8 240.9 92.1 246.6 92.1 253.7C92.1 260.8 97.8 266.5 104.9 266.5ZM194.3 266.5C201.4 266.5 207.1 260.8 207.1 253.7C207.1 246.6 201.4 240.9 194.3 240.9C187.2 240.9 181.5 246.6 181.5 253.7C181.5 260.8 187.2 266.5 194.3 266.5ZM313.4 240.9C306.2 240.9 300.6 246.5 300.6 253.7V283.5C300.6 290.7 306.2 296.3 313.4 296.3C320.6 296.3 326.2 290.7 326.2 283.5V253.7C326.2 246.5 320.6 240.9 313.4 240.9ZM402.8 240.9C395.7 240.9 390 246.6 390 253.7C390 260.8 395.7 266.5 402.8 266.5C409.9 266.5 415.6 260.8 415.6 253.7C415.6 246.6 409.9 240.9 402.8 240.9ZM462.4 240.9C455.3 240.9 449.6 246.6 449.6 253.7C449.6 260.8 455.3 266.5 462.4 266.5C469.5 266.5 475.2 260.8 475.2 253.7C475.2 246.6 469.5 240.9 462.4 240.9ZM551.8 240.9C544.7 240.9 539 246.6 539 253.7C539 260.8 544.7 266.5 551.8 266.5C558.9 266.5 564.6 260.8 564.6 253.7C564.6 246.6 558.8 240.9 551.8 240.9ZM581.6 240.9C574.5 240.9 568.8 246.6 568.8 253.7C568.8 260.8 574.5 266.5 581.6 266.5C588.7 266.5 594.4 260.8 594.4 253.7C594.4 246.6 588.6 240.9 581.6 240.9ZM611.4 240.9C604.3 240.9 598.6 246.6 598.6 253.7C598.6 260.8 604.3 266.5 611.4 266.5C618.5 266.5 624.2 260.8 624.2 253.7C624.2 246.6 618.4 240.9 611.4 240.9ZM641.2 240.9C634.1 240.9 628.4 246.6 628.4 253.7C628.4 260.8 634.1 266.5 641.2 266.5C648.3 266.5 654 260.8 654 253.7C654 246.6 648.2 240.9 641.2 240.9ZM671 240.9C663.9 240.9 658.2 246.6 658.2 253.7C658.2 260.8 663.9 266.5 671 266.5C678.1 266.5 683.8 260.8 683.8 253.7C683.8 246.6 678 240.9 671 240.9ZM45.3 296.3C52.4 296.3 58.1 290.6 58.1 283.5C58.1 276.4 52.4 270.7 45.3 270.7C38.2 270.7 32.5 276.4 32.5 283.5C32.5 290.6 38.2 296.3 45.3 296.3ZM224.1 270.7C216.9 270.7 211.3 276.3 211.3 283.5V343.1C211.3 350.3 216.9 355.9 224.1 355.9C231.3 355.9 236.9 350.3 236.9 343.1V283.5C236.8 276.3 231.2 270.7 224.1 270.7ZM283.6 270.7C276.5 270.7 270.8 276.4 270.8 283.5C270.8 290.6 276.5 296.3 283.6 296.3C290.7 296.3 296.4 290.6 296.4 283.5C296.4 276.4 290.7 270.7 283.6 270.7ZM492.2 270.7C485 270.7 479.4 276.3 479.4 283.5V313.3C479.4 320.5 485 326.1 492.2 326.1C499.4 326.1 505 320.5 505 313.3V283.5C505 276.3 499.4 270.7 492.2 270.7ZM700.8 270.7C693.6 270.7 688 276.3 688 283.5V313.3C688 320.5 693.6 326.1 700.8 326.1C708 326.1 713.6 320.5 713.6 313.3V283.5C713.5 276.3 707.9 270.7 700.8 270.7ZM2.70001 492C2.70001 499.2 8.30001 504.8 15.5 504.8C22.7 504.8 28.3 499.2 28.3 492V313.3C28.3 306.1 22.7 300.5 15.5 300.5C8.30001 300.5 2.70001 306.1 2.70001 313.3V492ZM92.1 343.1C92.1 350.3 97.7 355.9 104.9 355.9C112.1 355.9 117.7 350.3 117.7 343.1V313.3C117.7 306.1 112.1 300.5 104.9 300.5C97.7 300.5 92.1 306.1 92.1 313.3V343.1ZM164.5 326.1C171.7 326.1 177.3 320.5 177.3 313.3V253.7C177.3 246.5 171.7 240.9 164.5 240.9C157.3 240.9 151.7 246.5 151.7 253.7V313.3C151.7 320.4 157.3 326.1 164.5 326.1ZM194.3 326.1C201.4 326.1 207.1 320.4 207.1 313.3C207.1 306.2 201.4 300.5 194.3 300.5C187.2 300.5 181.5 306.2 181.5 313.3C181.5 320.3 187.2 326.1 194.3 326.1ZM253.9 300.5C246.7 300.5 241.1 306.1 241.1 313.3V462.3C241.1 469.5 246.7 475.1 253.9 475.1C261.1 475.1 266.7 469.5 266.7 462.3V313.3C266.6 306.1 261 300.5 253.9 300.5ZM373 300.5C365.9 300.5 360.2 306.2 360.2 313.3C360.2 320.4 365.9 326.1 373 326.1C380.1 326.1 385.8 320.4 385.8 313.3C385.8 306.2 380.1 300.5 373 300.5ZM462.4 300.5C455.2 300.5 449.6 306.1 449.6 313.3V372.9C449.6 380.1 455.2 385.7 462.4 385.7C469.6 385.7 475.2 380.1 475.2 372.9V313.3C475.2 306.1 469.6 300.5 462.4 300.5ZM522 300.5C514.9 300.5 509.2 306.2 509.2 313.3C509.2 320.4 514.9 326.1 522 326.1C529.1 326.1 534.8 320.4 534.8 313.3C534.8 306.2 529.1 300.5 522 300.5ZM641.2 300.5C634.1 300.5 628.4 306.2 628.4 313.3C628.4 320.4 634.1 326.1 641.2 326.1C648.3 326.1 654 320.4 654 313.3C654 306.2 648.2 300.5 641.2 300.5ZM730.5 300.5C723.3 300.5 717.7 306.1 717.7 313.3V372.9C717.7 380.1 723.3 385.7 730.5 385.7C737.7 385.7 743.3 380.1 743.3 372.9V313.3C743.3 306.1 737.7 300.5 730.5 300.5ZM62.3 492C62.3 499.2 67.9 504.8 75.1 504.8C82.3 504.8 87.9 499.2 87.9 492V343C87.9 335.8 82.3 330.2 75.1 330.2C67.9 330.2 62.3 335.8 62.3 343V492ZM313.4 330.3C306.2 330.3 300.6 335.9 300.6 343.1V372.9C300.6 380.1 306.2 385.7 313.4 385.7C320.6 385.7 326.2 380.1 326.2 372.9V343.1C326.2 335.9 320.6 330.3 313.4 330.3ZM343.2 330.3C336 330.3 330.4 335.9 330.4 343.1V372.9C330.4 380.1 336 385.7 343.2 385.7C350.4 385.7 356 380.1 356 372.9V343.1C356 335.9 350.4 330.3 343.2 330.3ZM581.6 330.3C574.4 330.3 568.8 335.9 568.8 343.1V492.1C568.8 499.3 574.4 504.9 581.6 504.9C588.8 504.9 594.4 499.3 594.4 492.1V343.1C594.4 335.9 588.7 330.3 581.6 330.3ZM45.3 385.7C52.4 385.7 58.1 380 58.1 372.9C58.1 365.8 52.4 360.1 45.3 360.1C38.2 360.1 32.5 365.8 32.5 372.9C32.5 379.9 38.2 385.7 45.3 385.7ZM147.5 372.9V253.7C147.5 246.5 141.9 240.9 134.7 240.9C127.5 240.9 121.9 246.5 121.9 253.7V372.9C121.9 380.1 127.5 385.7 134.7 385.7C141.8 385.7 147.5 380 147.5 372.9ZM151.7 402.7C151.7 409.9 157.3 415.5 164.5 415.5C171.7 415.5 177.3 409.9 177.3 402.7V372.9C177.3 365.7 171.7 360.1 164.5 360.1C157.3 360.1 151.7 365.7 151.7 372.9V402.7ZM194.3 385.7C201.4 385.7 207.1 380 207.1 372.9C207.1 365.8 201.4 360.1 194.3 360.1C187.2 360.1 181.5 365.8 181.5 372.9C181.5 379.9 187.2 385.7 194.3 385.7ZM373 360.1C365.9 360.1 360.2 365.8 360.2 372.9C360.2 380 365.9 385.7 373 385.7C380.1 385.7 385.8 380 385.8 372.9C385.8 365.8 380.1 360.1 373 360.1ZM402.8 360.1C395.6 360.1 390 365.7 390 372.9V432.5C390 439.7 395.6 445.3 402.8 445.3C410 445.3 415.6 439.7 415.6 432.5V372.9C415.6 365.7 410 360.1 402.8 360.1ZM432.6 360.1C425.5 360.1 419.8 365.8 419.8 372.9C419.8 380 425.5 385.7 432.6 385.7C439.7 385.7 445.4 380 445.4 372.9C445.4 365.8 439.7 360.1 432.6 360.1ZM522 360.1C514.9 360.1 509.2 365.8 509.2 372.9C509.2 380 514.9 385.7 522 385.7C529.1 385.7 534.8 380 534.8 372.9C534.8 365.8 529.1 360.1 522 360.1ZM551.8 360.1C544.7 360.1 539 365.8 539 372.9C539 380 544.7 385.7 551.8 385.7C558.9 385.7 564.6 380 564.6 372.9C564.6 365.8 558.8 360.1 551.8 360.1ZM611.4 360.1C604.3 360.1 598.6 365.8 598.6 372.9C598.6 380 604.3 385.7 611.4 385.7C618.5 385.7 624.2 380 624.2 372.9C624.2 365.8 618.4 360.1 611.4 360.1ZM671 360.1C663.9 360.1 658.2 365.8 658.2 372.9C658.2 380 663.9 385.7 671 385.7C678.1 385.7 683.8 380 683.8 372.9C683.8 365.8 678 360.1 671 360.1ZM700.8 360.1C693.6 360.1 688 365.7 688 372.9V432.5C688 439.7 693.6 445.3 700.8 445.3C708 445.3 713.6 439.7 713.6 432.5V372.9C713.5 365.7 707.9 360.1 700.8 360.1ZM492.2 389.9C485.1 389.9 479.4 395.6 479.4 402.7C479.4 409.8 485.1 415.5 492.2 415.5C499.3 415.5 505 409.8 505 402.7C505 395.6 499.3 389.9 492.2 389.9ZM641.2 389.9C634 389.9 628.4 395.5 628.4 402.7V432.5C628.4 439.7 634 445.3 641.2 445.3C648.4 445.3 654 439.7 654 432.5V402.7C654 395.5 648.3 389.9 641.2 389.9ZM104.9 445.2C112 445.2 117.7 439.5 117.7 432.4C117.7 425.3 112 419.6 104.9 419.6C97.8 419.6 92.1 425.3 92.1 432.4C92.1 439.5 97.8 445.2 104.9 445.2ZM194.3 445.2C201.4 445.2 207.1 439.5 207.1 432.4C207.1 425.3 201.4 419.6 194.3 419.6C187.2 419.6 181.5 425.3 181.5 432.4C181.5 439.5 187.2 445.2 194.3 445.2ZM283.6 419.7C276.5 419.7 270.8 425.4 270.8 432.5C270.8 439.6 276.5 445.3 283.6 445.3C290.7 445.3 296.4 439.6 296.4 432.5C296.4 425.4 290.7 419.7 283.6 419.7ZM343.2 419.7C336 419.7 330.4 425.3 330.4 432.5V492C330.4 499.2 336 504.8 343.2 504.8C350.4 504.8 356 499.2 356 492V432.4C356 425.3 350.4 419.7 343.2 419.7ZM373 419.7C365.9 419.7 360.2 425.4 360.2 432.5C360.2 439.6 365.9 445.3 373 445.3C380.1 445.3 385.8 439.6 385.8 432.5C385.8 425.4 380.1 419.7 373 419.7ZM432.6 419.7C425.4 419.7 419.8 425.3 419.8 432.5V462.3C419.8 469.5 425.4 475.1 432.6 475.1C439.8 475.1 445.4 469.5 445.4 462.3V432.5C445.4 425.3 439.8 419.7 432.6 419.7ZM462.4 419.7C455.3 419.7 449.6 425.4 449.6 432.5C449.6 439.6 455.3 445.3 462.4 445.3C469.5 445.3 475.2 439.6 475.2 432.5C475.2 425.4 469.5 419.7 462.4 419.7ZM522 419.7C514.8 419.7 509.2 425.3 509.2 432.5V492C509.2 499.2 514.8 504.8 522 504.8C529.2 504.8 534.8 499.2 534.8 492V432.4C534.8 425.3 529.2 419.7 522 419.7ZM611.4 419.7C604.2 419.7 598.6 425.3 598.6 432.5V641C598.6 648.2 604.2 653.8 611.4 653.8C618.6 653.8 624.2 648.2 624.2 641V432.5C624.2 425.3 618.5 419.7 611.4 419.7ZM730.5 419.7C723.3 419.7 717.7 425.3 717.7 432.5V462.3C717.7 469.5 723.3 475.1 730.5 475.1C737.7 475.1 743.3 469.5 743.3 462.3V432.5C743.3 425.3 737.7 419.7 730.5 419.7ZM151.7 492C151.7 499.2 157.3 504.8 164.5 504.8C171.7 504.8 177.3 499.2 177.3 492V462.2C177.3 455 171.7 449.4 164.5 449.4C157.3 449.4 151.7 455 151.7 462.2V492ZM224.1 449.5C217 449.5 211.3 455.2 211.3 462.3C211.3 469.4 217 475.1 224.1 475.1C231.2 475.1 236.9 469.4 236.9 462.3C236.8 455.2 231.1 449.5 224.1 449.5ZM551.8 449.5C544.6 449.5 539 455.1 539 462.3V492C539 499.2 544.6 504.8 551.8 504.8C559 504.8 564.6 499.2 564.6 492V462.2C564.6 455.1 559 449.5 551.8 449.5ZM104.9 504.8C112 504.8 117.7 499.1 117.7 492C117.7 484.9 112 479.2 104.9 479.2C97.8 479.2 92.1 484.9 92.1 492C92.1 499.1 97.8 504.8 104.9 504.8ZM134.7 504.8C141.8 504.8 147.5 499.1 147.5 492C147.5 484.9 141.8 479.2 134.7 479.2C127.6 479.2 121.9 484.9 121.9 492C121.9 499.1 127.6 504.8 134.7 504.8ZM194.3 504.8C201.4 504.8 207.1 499.1 207.1 492C207.1 484.9 201.4 479.2 194.3 479.2C187.2 479.2 181.5 484.9 181.5 492C181.5 499.1 187.2 504.8 194.3 504.8ZM462.4 479.3C455.3 479.3 449.6 485 449.6 492.1C449.6 499.2 455.3 504.9 462.4 504.9C469.5 504.9 475.2 499.2 475.2 492.1C475.2 485 469.5 479.3 462.4 479.3ZM492.2 479.3C485 479.3 479.4 484.9 479.4 492.1V700.7C479.4 707.9 485 713.5 492.2 713.5C499.4 713.5 505 707.9 505 700.7V492C505 484.9 499.4 479.3 492.2 479.3ZM671 479.3C663.9 479.3 658.2 485 658.2 492.1C658.2 499.2 663.9 504.9 671 504.9C678.1 504.9 683.8 499.2 683.8 492.1C683.8 485 678 479.3 671 479.3ZM253.9 509.1C246.8 509.1 241.1 514.8 241.1 521.9C241.1 529 246.8 534.7 253.9 534.7C261 534.7 266.7 529 266.7 521.9C266.6 514.8 260.9 509.1 253.9 509.1ZM283.6 509.1C276.5 509.1 270.8 514.8 270.8 521.9C270.8 529 276.5 534.7 283.6 534.7C290.7 534.7 296.4 529 296.4 521.9C296.4 514.8 290.7 509.1 283.6 509.1ZM313.4 509.1C306.3 509.1 300.6 514.8 300.6 521.9C300.6 529 306.3 534.7 313.4 534.7C320.5 534.7 326.2 529 326.2 521.9C326.2 514.8 320.5 509.1 313.4 509.1ZM373 509.1C365.9 509.1 360.2 514.8 360.2 521.9C360.2 529 365.9 534.7 373 534.7C380.1 534.7 385.8 529 385.8 521.9C385.8 514.8 380.1 509.1 373 509.1ZM402.8 509.1C395.6 509.1 390 514.7 390 521.9V581.5C390 588.7 395.6 594.3 402.8 594.3C410 594.3 415.6 588.7 415.6 581.5V521.9C415.6 514.7 410 509.1 402.8 509.1ZM641.2 509.1C634.1 509.1 628.4 514.8 628.4 521.9C628.4 529 634.1 534.7 641.2 534.7C648.3 534.7 654 529 654 521.9C654 514.8 648.2 509.1 641.2 509.1ZM432.6 538.8C425.5 538.8 419.8 544.5 419.8 551.6C419.8 558.7 425.5 564.4 432.6 564.4C439.7 564.4 445.4 558.7 445.4 551.6C445.4 544.5 439.7 538.8 432.6 538.8ZM551.8 538.8C544.7 538.8 539 544.5 539 551.6C539 558.7 544.7 564.4 551.8 564.4C558.9 564.4 564.6 558.7 564.6 551.6C564.6 544.5 558.8 538.8 551.8 538.8ZM671 538.8C663.9 538.8 658.2 544.5 658.2 551.6C658.2 558.7 663.9 564.4 671 564.4C678.1 564.4 683.8 558.7 683.8 551.6C683.8 544.5 678 538.8 671 538.8ZM700.8 538.8C693.6 538.8 688 544.4 688 551.6V641C688 648.2 693.6 653.8 700.8 653.8C708 653.8 713.6 648.2 713.6 641V551.6C713.5 544.5 707.9 538.8 700.8 538.8ZM730.5 538.8C723.3 538.8 717.7 544.4 717.7 551.6V730.4C717.7 737.6 723.3 743.2 730.5 743.2C737.7 743.2 743.3 737.6 743.3 730.4V551.6C743.3 544.5 737.7 538.8 730.5 538.8ZM253.9 568.6C246.7 568.6 241.1 574.2 241.1 581.4V670.8C241.1 678 246.7 683.6 253.9 683.6C261.1 683.6 266.7 678 266.7 670.8V581.4C266.6 574.3 261 568.6 253.9 568.6ZM283.6 568.6C276.4 568.6 270.8 574.2 270.8 581.4V611.2C270.8 618.4 276.4 624 283.6 624C290.8 624 296.4 618.4 296.4 611.2V581.4C296.4 574.3 290.8 568.6 283.6 568.6ZM373 568.6C365.8 568.6 360.2 574.2 360.2 581.4V611.2C360.2 618.4 365.8 624 373 624C380.2 624 385.8 618.4 385.8 611.2V581.4C385.8 574.3 380.2 568.6 373 568.6ZM641.2 568.6C634.1 568.6 628.4 574.3 628.4 581.4C628.4 588.5 634.1 594.2 641.2 594.2C648.3 594.2 654 588.5 654 581.4C654 574.4 648.2 568.6 641.2 568.6ZM432.6 598.4C425.5 598.4 419.8 604.1 419.8 611.2C419.8 618.3 425.5 624 432.6 624C439.7 624 445.4 618.3 445.4 611.2C445.4 604.2 439.7 598.4 432.6 598.4ZM462.4 598.4C455.3 598.4 449.6 604.1 449.6 611.2C449.6 618.3 455.3 624 462.4 624C469.5 624 475.2 618.3 475.2 611.2C475.2 604.2 469.5 598.4 462.4 598.4ZM522 598.4C514.8 598.4 509.2 604 509.2 611.2V641C509.2 648.2 514.8 653.8 522 653.8C529.2 653.8 534.8 648.2 534.8 641V611.2C534.8 604.1 529.2 598.4 522 598.4ZM551.8 598.4C544.6 598.4 539 604 539 611.2V641C539 648.2 544.6 653.8 551.8 653.8C559 653.8 564.6 648.2 564.6 641V611.2C564.6 604.1 559 598.4 551.8 598.4ZM581.6 598.4C574.5 598.4 568.8 604.1 568.8 611.2C568.8 618.3 574.5 624 581.6 624C588.7 624 594.4 618.3 594.4 611.2C594.4 604.2 588.6 598.4 581.6 598.4ZM671 598.4C663.8 598.4 658.2 604 658.2 611.2V670.8C658.2 678 663.8 683.6 671 683.6C678.2 683.6 683.8 678 683.8 670.8V611.2C683.8 604.1 678.1 598.4 671 598.4ZM313.4 628.2C306.2 628.2 300.6 633.8 300.6 641V670.8C300.6 678 306.2 683.6 313.4 683.6C320.6 683.6 326.2 678 326.2 670.8V641C326.2 633.9 320.6 628.2 313.4 628.2ZM641.2 628.2C634 628.2 628.4 633.8 628.4 641V730.4C628.4 737.6 634 743.2 641.2 743.2C648.4 743.2 654 737.6 654 730.4V641C654 633.9 648.3 628.2 641.2 628.2ZM283.6 658C276.5 658 270.8 663.7 270.8 670.8C270.8 677.9 276.5 683.6 283.6 683.6C290.7 683.6 296.4 677.9 296.4 670.8C296.4 663.7 290.7 658 283.6 658ZM343.2 658C336 658 330.4 663.6 330.4 670.8V730.4C330.4 737.6 336 743.2 343.2 743.2C350.4 743.2 356 737.6 356 730.4V670.8C356 663.6 350.4 658 343.2 658ZM373 658C365.9 658 360.2 663.7 360.2 670.8C360.2 677.9 365.9 683.6 373 683.6C380.1 683.6 385.8 677.9 385.8 670.8C385.8 663.7 380.1 658 373 658ZM432.6 687.8C425.5 687.8 419.8 693.5 419.8 700.6C419.8 707.7 425.5 713.4 432.6 713.4C439.7 713.4 445.4 707.7 445.4 700.6C445.4 693.5 439.7 687.8 432.6 687.8ZM462.4 687.8C455.2 687.8 449.6 693.4 449.6 700.6V730.4C449.6 737.6 455.2 743.2 462.4 743.2C469.6 743.2 475.2 737.6 475.2 730.4V700.6C475.2 693.4 469.6 687.8 462.4 687.8ZM522 687.8C514.8 687.8 509.2 693.4 509.2 700.6V730.4C509.2 737.6 514.8 743.2 522 743.2C529.2 743.2 534.8 737.6 534.8 730.4V700.6C534.8 693.4 529.2 687.8 522 687.8ZM551.8 687.8C544.6 687.8 539 693.4 539 700.6V730.4C539 737.6 544.6 743.2 551.8 743.2C559 743.2 564.6 737.6 564.6 730.4V700.6C564.6 693.4 559 687.8 551.8 687.8ZM581.6 687.8C574.4 687.8 568.8 693.4 568.8 700.6V730.4C568.8 737.6 574.4 743.2 581.6 743.2C588.8 743.2 594.4 737.6 594.4 730.4V700.6C594.4 693.4 588.7 687.8 581.6 687.8ZM611.4 687.8C604.2 687.8 598.6 693.4 598.6 700.6V730.4C598.6 737.6 604.2 743.2 611.4 743.2C618.6 743.2 624.2 737.6 624.2 730.4V700.6C624.2 693.4 618.5 687.8 611.4 687.8ZM253.9 717.6C246.8 717.6 241.1 723.3 241.1 730.4C241.1 737.5 246.8 743.2 253.9 743.2C261 743.2 266.7 737.5 266.7 730.4C266.7 723.3 260.9 717.6 253.9 717.6ZM283.6 717.6C276.5 717.6 270.8 723.3 270.8 730.4C270.8 737.5 276.5 743.2 283.6 743.2C290.7 743.2 296.4 737.5 296.4 730.4C296.4 723.3 290.7 717.6 283.6 717.6ZM313.4 717.6C306.3 717.6 300.6 723.3 300.6 730.4C300.6 737.5 306.3 743.2 313.4 743.2C320.5 743.2 326.2 737.5 326.2 730.4C326.2 723.3 320.5 717.6 313.4 717.6ZM671 717.6C663.9 717.6 658.2 723.3 658.2 730.4C658.2 737.5 663.9 743.2 671 743.2C678.1 743.2 683.8 737.5 683.8 730.4C683.8 723.3 678 717.6 671 717.6ZM700.8 717.6C693.7 717.6 688 723.3 688 730.4C688 737.5 693.7 743.2 700.8 743.2C707.9 743.2 713.6 737.5 713.6 730.4C713.6 723.3 707.8 717.6 700.8 717.6ZM141.7 0H65.7C29.9 0 0.200012 29.8 0.200012 65.5V141.5C0.200012 178.7 30 208.5 67.2 208.5H143.2C179 208.5 208.7 178.7 208.7 143V67C208.7 29.8 178.9 0 141.7 0ZM178.9 137.1C178.9 159.4 159.5 178.8 137.2 178.8H71.7C47.9 178.8 30 160.9 30 137.1V71.6C30 49.3 49.4 29.9 71.7 29.9H137.2C161 29.9 178.9 47.8 178.9 71.6V137.1ZM678 0H602C566.2 0 536.5 29.8 536.5 65.5V141.5C536.5 178.7 566.3 208.5 603.5 208.5H679.5C715.3 208.5 745 178.7 745 143V67C745 29.8 715.2 0 678 0ZM715.2 137.1C715.2 159.4 695.8 178.8 673.5 178.8H608C584.2 178.8 566.3 160.9 566.3 137.1V71.6C566.3 49.3 585.7 29.9 608 29.9H673.5C697.3 29.9 715.2 47.8 715.2 71.6V137.1ZM141.7 536.3H65.7C29.9 536.3 0.200012 566.1 0.200012 601.8V677.8C0.200012 715 30 744.8 67.2 744.8H143.2C179 744.8 208.7 715 208.7 679.3V603.3C208.7 566.1 178.9 536.3 141.7 536.3ZM178.9 673.3C178.9 695.6 159.5 715 137.2 715H71.7C47.9 715 30 697.1 30 673.3V607.8C30 585.5 49.4 566.1 71.7 566.1H137.2C161 566.1 178.9 584 178.9 607.8V673.3ZM59.8 149H149.2V59.6H59.8V149ZM596 149H685.4V59.6H596V149ZM59.8 685.3H149.2V595.9H59.8V685.3Z" fill="white"/>
<path d="M191 851.6C191 864.4 186.1 872.3 177.6 872.3C172.8 872.3 169.5 869.7 168.5 865.1C165.5 869.8 160.5 872.3 154.2 872.3C143.5 872.3 135.7 864.2 135.7 852.9C135.7 841.6 143.5 833.7 154.2 833.7C160 833.7 164.9 835.9 168 840.1V834H174.6V861.1C174.6 865.1 176.6 866.5 178.9 866.5C183.4 866.5 185.9 861.1 185.9 851.6C185.9 834.7 173.7 823.4 155.9 823.4C137.9 823.4 125.8 835.5 125.8 852.6C125.8 869.9 137.7 881.9 155.6 881.9C160.2 881.9 165.7 880.9 170.2 878.6L171.9 883.4C167.3 885.7 161 886.9 155.7 886.9C134.7 886.9 120.4 872.5 120.4 852.5C120.4 832.6 134.9 818.3 156 818.3C176.5 818.5 191 832.1 191 851.6ZM168.1 852.9C168.1 844.5 162.5 839.5 155.2 839.5C147.7 839.5 142.4 844.7 142.4 852.9C142.4 861 147.7 866.4 155.2 866.4C162.5 866.4 168.1 861.3 168.1 852.9Z" fill="#E20A13"/>
<path d="M237.8 871.8L226.4 855.6C225.3 855.7 224.2 855.8 223.1 855.8H210.1V871.9H202.6V819H223.2C236.9 819 245.2 825.9 245.2 837.4C245.2 845.5 241 851.4 233.6 854.1L246.1 871.8H237.8ZM237.6 837.4C237.6 829.9 232.5 825.6 222.9 825.6H210.1V849.4H222.9C232.5 849.3 237.6 845 237.6 837.4Z" fill="#E20A13"/>
<path d="M291 858.6H262.9L257.1 871.8H249.3L273.2 819H280.7L304.7 871.8H296.8L291 858.6ZM288.3 852.6L276.9 826.7L265.5 852.6H288.3Z" fill="#E20A13"/>
<path d="M307.5 845.4C307.5 829.8 319.4 818.4 335.5 818.4C343.6 818.4 350.7 821.2 355.6 826.6L350.7 831.4C346.6 827.1 341.6 825.1 335.8 825.1C323.9 825.1 315.1 833.7 315.1 845.4C315.1 857.1 323.9 865.7 335.8 865.7C341.6 865.7 346.6 863.7 350.7 859.4L355.6 864.2C350.8 869.6 343.7 872.5 335.5 872.5C319.4 872.4 307.5 861 307.5 845.4Z" fill="#E20A13"/>
<path d="M404.6 865.3V871.9H366.3V819H403.6V825.6H373.9V841.8H400.4V848.2H373.9V865.2H404.6V865.3Z" fill="#E20A13"/>
<path d="M450.5 858.6H422.4L416.6 871.8H408.8L432.7 819H440.2L464.2 871.8H456.3L450.5 858.6ZM447.8 852.6L436.4 826.7L425 852.6H447.8Z" fill="#E20A13"/>
<path d="M470.5 849V819H478V848.7C478 860.4 483.4 865.7 492.9 865.7C502.4 865.7 507.8 860.4 507.8 848.7V819H515.1V849C515.1 864.3 506.7 872.4 492.8 872.4C478.9 872.4 470.5 864.3 470.5 849Z" fill="#E20A13"/>
<path d="M540.1 825.6H522V819H565.7V825.6H547.6V871.8H540.1V825.6Z" fill="#E20A13"/>
<path d="M568.8 845.4C568.8 829.9 580.7 818.4 596.9 818.4C613 818.4 624.9 829.9 624.9 845.4C624.9 860.9 613 872.4 596.9 872.4C580.7 872.4 568.8 860.9 568.8 845.4ZM617.4 845.4C617.4 833.7 608.7 825.1 597 825.1C585.2 825.1 576.4 833.7 576.4 845.4C576.4 857.1 585.1 865.7 597 865.7C608.6 865.7 617.4 857.1 617.4 845.4Z" fill="#E20A13"/>
</svg>
